  0
SECTION
  2
BLOCKS
  0
ENDSEC
  0
SECTION
  2
ENTITIES
  0
LINE
  8
0
 10
30
 20
50
 11
20
 21
50
  0
LINE
  8
0
 10
20
 20
50
 11
20
 21
100
  0
LINE
  8
0
 10
20
 20
100
 11
0
 21
100
  0
LINE
  8
0
 10
0
 20
100
 11
0
 21
0
  0
LINE
  8
0
 10
0
 20
0
 11
30
 21
0
  0
LINE
  8
0
 10
30
 20
0
 11
30
 21
50
  0
LINE
  8
0
 10
9.62325
 20
84.0118
 11
8.8757
 21
84.1063
  0
LINE
  8
0
 10
8.8757
 20
84.1063
 11
8.14589
 21
84.2937
  0
LINE
  8
0
 10
8.14589
 20
84.2937
 11
7.44531
 21
84.571
  0
LINE
  8
0
 10
7.44531
 20
84.571
 11
6.78503
 21
84.934
  0
LINE
  8
0
 10
6.78503
 20
84.934
 11
6.17545
 21
85.3769
  0
LINE
  8
0
 10
6.17545
 20
85.3769
 11
5.62617
 21
85.8927
  0
LINE
  8
0
 10
5.62617
 20
85.8927
 11
5.14589
 21
86.4733
  0
LINE
  8
0
 10
5.14589
 20
86.4733
 11
4.74216
 21
87.1095
  0
LINE
  8
0
 10
4.74216
 20
87.1095
 11
4.42134
 21
87.7912
  0
LINE
  8
0
 10
4.42134
 20
87.7912
 11
4.18849
 21
88.5079
  0
LINE
  8
0
 10
4.18849
 20
88.5079
 11
4.0473
 21
89.248
  0
LINE
  8
0
 10
4.0473
 20
89.248
 11
4
 21
90
  0
LINE
  8
0
 10
4
 20
90
 11
4.0473
 21
90.752
  0
LINE
  8
0
 10
4.0473
 20
90.752
 11
4.18849
 21
91.4921
  0
LINE
  8
0
 10
4.18849
 20
91.4921
 11
4.42134
 21
92.2087
  0
LINE
  8
0
 10
4.42134
 20
92.2087
 11
4.74216
 21
92.8905
  0
LINE
  8
0
 10
4.74216
 20
92.8905
 11
5.14589
 21
93.5267
  0
LINE
  8
0
 10
5.14589
 20
93.5267
 11
5.62617
 21
94.1073
  0
LINE
  8
0
 10
5.62617
 20
94.1073
 11
6.17545
 21
94.6231
  0
LINE
  8
0
 10
6.17545
 20
94.6231
 11
6.78503
 21
95.066
  0
LINE
  8
0
 10
6.78503
 20
95.066
 11
7.44531
 21
95.429
  0
LINE
  8
0
 10
7.44531
 20
95.429
 11
8.14589
 21
95.7063
  0
LINE
  8
0
 10
8.14589
 20
95.7063
 11
8.8757
 21
95.8937
  0
LINE
  8
0
 10
8.8757
 20
95.8937
 11
9.62325
 21
95.9882
  0
LINE
  8
0
 10
9.62325
 20
95.9882
 11
10.3767
 21
95.9882
  0
LINE
  8
0
 10
10.3767
 20
95.9882
 11
11.1243
 21
95.8937
  0
LINE
  8
0
 10
11.1243
 20
95.8937
 11
11.8541
 21
95.7063
  0
LINE
  8
0
 10
11.8541
 20
95.7063
 11
12.5547
 21
95.429
  0
LINE
  8
0
 10
12.5547
 20
95.429
 11
13.215
 21
95.066
  0
LINE
  8
0
 10
13.215
 20
95.066
 11
13.8245
 21
94.6231
  0
LINE
  8
0
 10
13.8245
 20
94.6231
 11
14.3738
 21
94.1073
  0
LINE
  8
0
 10
14.3738
 20
94.1073
 11
14.8541
 21
93.5267
  0
LINE
  8
0
 10
14.8541
 20
93.5267
 11
15.2578
 21
92.8905
  0
LINE
  8
0
 10
15.2578
 20
92.8905
 11
15.5786
 21
92.2087
  0
LINE
  8
0
 10
15.5786
 20
92.2087
 11
15.8115
 21
91.4921
  0
LINE
  8
0
 10
15.8115
 20
91.4921
 11
15.9527
 21
90.752
  0
LINE
  8
0
 10
15.9527
 20
90.752
 11
16
 21
90
  0
LINE
  8
0
 10
16
 20
90
 11
15.9527
 21
89.248
  0
LINE
  8
0
 10
15.9527
 20
89.248
 11
15.8115
 21
88.5079
  0
LINE
  8
0
 10
15.8115
 20
88.5079
 11
15.5786
 21
87.7912
  0
LINE
  8
0
 10
15.5786
 20
87.7912
 11
15.2578
 21
87.1095
  0
LINE
  8
0
 10
15.2578
 20
87.1095
 11
14.8541
 21
86.4733
  0
LINE
  8
0
 10
14.8541
 20
86.4733
 11
14.3738
 21
85.8927
  0
LINE
  8
0
 10
14.3738
 20
85.8927
 11
13.8245
 21
85.3769
  0
LINE
  8
0
 10
13.8245
 20
85.3769
 11
13.215
 21
84.934
  0
LINE
  8
0
 10
13.215
 20
84.934
 11
12.5547
 21
84.571
  0
LINE
  8
0
 10
12.5547
 20
84.571
 11
11.8541
 21
84.2937
  0
LINE
  8
0
 10
11.8541
 20
84.2937
 11
11.1243
 21
84.1063
  0
LINE
  8
0
 10
11.1243
 20
84.1063
 11
10.3767
 21
84.0118
  0
LINE
  8
0
 10
10.3767
 20
84.0118
 11
9.62325
 21
84.0118
  0
LINE
  8
0
 10
24.843
 20
42.5049
 11
24.5315
 21
42.5443
  0
LINE
  8
0
 10
24.5315
 20
42.5443
 11
24.2274
 21
42.6223
  0
LINE
  8
0
 10
24.2274
 20
42.6223
 11
23.9355
 21
42.7379
  0
LINE
  8
0
 10
23.9355
 20
42.7379
 11
23.6604
 21
42.8892
  0
LINE
  8
0
 10
23.6604
 20
42.8892
 11
23.4064
 21
43.0737
  0
LINE
  8
0
 10
23.4064
 20
43.0737
 11
23.1776
 21
43.2886
  0
LINE
  8
0
 10
23.1776
 20
43.2886
 11
22.9774
 21
43.5305
  0
LINE
  8
0
 10
22.9774
 20
43.5305
 11
22.8092
 21
43.7956
  0
LINE
  8
0
 10
22.8092
 20
43.7956
 11
22.6756
 21
44.0797
  0
LINE
  8
0
 10
22.6756
 20
44.0797
 11
22.5785
 21
44.3783
  0
LINE
  8
0
 10
22.5785
 20
44.3783
 11
22.5197
 21
44.6867
  0
LINE
  8
0
 10
22.5197
 20
44.6867
 11
22.5
 21
45
  0
LINE
  8
0
 10
22.5
 20
45
 11
22.5197
 21
45.3133
  0
LINE
  8
0
 10
22.5197
 20
45.3133
 11
22.5785
 21
45.6217
  0
LINE
  8
0
 10
22.5785
 20
45.6217
 11
22.6756
 21
45.9203
  0
LINE
  8
0
 10
22.6756
 20
45.9203
 11
22.8092
 21
46.2044
  0
LINE
  8
0
 10
22.8092
 20
46.2044
 11
22.9774
 21
46.4695
  0
LINE
  8
0
 10
22.9774
 20
46.4695
 11
23.1776
 21
46.7114
  0
LINE
  8
0
 10
23.1776
 20
46.7114
 11
23.4064
 21
46.9263
  0
LINE
  8
0
 10
23.4064
 20
46.9263
 11
23.6604
 21
47.1108
  0
LINE
  8
0
 10
23.6604
 20
47.1108
 11
23.9355
 21
47.2621
  0
LINE
  8
0
 10
23.9355
 20
47.2621
 11
24.2274
 21
47.3776
  0
LINE
  8
0
 10
24.2274
 20
47.3776
 11
24.5315
 21
47.4557
  0
LINE
  8
0
 10
24.5315
 20
47.4557
 11
24.843
 21
47.4951
  0
LINE
  8
0
 10
24.843
 20
47.4951
 11
25.157
 21
47.4951
  0
LINE
  8
0
 10
25.157
 20
47.4951
 11
25.4684
 21
47.4557
  0
LINE
  8
0
 10
25.4684
 20
47.4557
 11
25.7725
 21
47.3776
  0
LINE
  8
0
 10
25.7725
 20
47.3776
 11
26.0644
 21
47.2621
  0
LINE
  8
0
 10
26.0644
 20
47.2621
 11
26.3396
 21
47.1108
  0
LINE
  8
0
 10
26.3396
 20
47.1108
 11
26.5936
 21
46.9263
  0
LINE
  8
0
 10
26.5936
 20
46.9263
 11
26.8224
 21
46.7114
  0
LINE
  8
0
 10
26.8224
 20
46.7114
 11
27.0225
 21
46.4695
  0
LINE
  8
0
 10
27.0225
 20
46.4695
 11
27.1908
 21
46.2044
  0
LINE
  8
0
 10
27.1908
 20
46.2044
 11
27.3244
 21
45.9203
  0
LINE
  8
0
 10
27.3244
 20
45.9203
 11
27.4214
 21
45.6217
  0
LINE
  8
0
 10
27.4214
 20
45.6217
 11
27.4803
 21
45.3133
  0
LINE
  8
0
 10
27.4803
 20
45.3133
 11
27.5
 21
45
  0
LINE
  8
0
 10
27.5
 20
45
 11
27.4803
 21
44.6867
  0
LINE
  8
0
 10
27.4803
 20
44.6867
 11
27.4214
 21
44.3783
  0
LINE
  8
0
 10
27.4214
 20
44.3783
 11
27.3244
 21
44.0797
  0
LINE
  8
0
 10
27.3244
 20
44.0797
 11
27.1908
 21
43.7956
  0
LINE
  8
0
 10
27.1908
 20
43.7956
 11
27.0225
 21
43.5305
  0
LINE
  8
0
 10
27.0225
 20
43.5305
 11
26.8224
 21
43.2886
  0
LINE
  8
0
 10
26.8224
 20
43.2886
 11
26.5936
 21
43.0737
  0
LINE
  8
0
 10
26.5936
 20
43.0737
 11
26.3396
 21
42.8892
  0
LINE
  8
0
 10
26.3396
 20
42.8892
 11
26.0644
 21
42.7379
  0
LINE
  8
0
 10
26.0644
 20
42.7379
 11
25.7725
 21
42.6223
  0
LINE
  8
0
 10
25.7725
 20
42.6223
 11
25.4684
 21
42.5443
  0
LINE
  8
0
 10
25.4684
 20
42.5443
 11
25.157
 21
42.5049
  0
LINE
  8
0
 10
25.157
 20
42.5049
 11
24.843
 21
42.5049
  0
LINE
  8
0
 10
24.843
 20
2.50493
 11
24.5315
 21
2.54428
  0
LINE
  8
0
 10
24.5315
 20
2.54428
 11
24.2274
 21
2.62234
  0
LINE
  8
0
 10
24.2274
 20
2.62234
 11
23.9355
 21
2.73793
  0
LINE
  8
0
 10
23.9355
 20
2.73793
 11
23.6604
 21
2.88918
  0
LINE
  8
0
 10
23.6604
 20
2.88918
 11
23.4064
 21
3.07372
  0
LINE
  8
0
 10
23.4064
 20
3.07372
 11
23.1776
 21
3.28862
  0
LINE
  8
0
 10
23.1776
 20
3.28862
 11
22.9774
 21
3.53053
  0
LINE
  8
0
 10
22.9774
 20
3.53053
 11
22.8092
 21
3.79561
  0
LINE
  8
0
 10
22.8092
 20
3.79561
 11
22.6756
 21
4.07968
  0
LINE
  8
0
 10
22.6756
 20
4.07968
 11
22.5785
 21
4.37827
  0
LINE
  8
0
 10
22.5785
 20
4.37827
 11
22.5197
 21
4.68666
  0
LINE
  8
0
 10
22.5197
 20
4.68666
 11
22.5
 21
5
  0
LINE
  8
0
 10
22.5
 20
5
 11
22.5197
 21
5.31332
  0
LINE
  8
0
 10
22.5197
 20
5.31332
 11
22.5785
 21
5.62172
  0
LINE
  8
0
 10
22.5785
 20
5.62172
 11
22.6756
 21
5.9203
  0
LINE
  8
0
 10
22.6756
 20
5.9203
 11
22.8092
 21
6.20438
  0
LINE
  8
0
 10
22.8092
 20
6.20438
 11
22.9774
 21
6.46945
  0
LINE
  8
0
 10
22.9774
 20
6.46945
 11
23.1776
 21
6.71136
  0
LINE
  8
0
 10
23.1776
 20
6.71136
 11
23.4064
 21
6.92627
  0
LINE
  8
0
 10
23.4064
 20
6.92627
 11
23.6604
 21
7.11081
  0
LINE
  8
0
 10
23.6604
 20
7.11081
 11
23.9355
 21
7.26205
  0
LINE
  8
0
 10
23.9355
 20
7.26205
 11
24.2274
 21
7.37764
  0
LINE
  8
0
 10
24.2274
 20
7.37764
 11
24.5315
 21
7.4557
  0
LINE
  8
0
 10
24.5315
 20
7.4557
 11
24.843
 21
7.49506
  0
LINE
  8
0
 10
24.843
 20
7.49506
 11
25.157
 21
7.49506
  0
LINE
  8
0
 10
25.157
 20
7.49506
 11
25.4684
 21
7.4557
  0
LINE
  8
0
 10
25.4684
 20
7.4557
 11
25.7725
 21
7.37764
  0
LINE
  8
0
 10
25.7725
 20
7.37764
 11
26.0644
 21
7.26205
  0
LINE
  8
0
 10
26.0644
 20
7.26205
 11
26.3396
 21
7.11081
  0
LINE
  8
0
 10
26.3396
 20
7.11081
 11
26.5936
 21
6.92627
  0
LINE
  8
0
 10
26.5936
 20
6.92627
 11
26.8224
 21
6.71136
  0
LINE
  8
0
 10
26.8224
 20
6.71136
 11
27.0225
 21
6.46945
  0
LINE
  8
0
 10
27.0225
 20
6.46945
 11
27.1908
 21
6.20438
  0
LINE
  8
0
 10
27.1908
 20
6.20438
 11
27.3244
 21
5.9203
  0
LINE
  8
0
 10
27.3244
 20
5.9203
 11
27.4214
 21
5.62172
  0
LINE
  8
0
 10
27.4214
 20
5.62172
 11
27.4803
 21
5.31332
  0
LINE
  8
0
 10
27.4803
 20
5.31332
 11
27.5
 21
5
  0
LINE
  8
0
 10
27.5
 20
5
 11
27.4803
 21
4.68666
  0
LINE
  8
0
 10
27.4803
 20
4.68666
 11
27.4214
 21
4.37827
  0
LINE
  8
0
 10
27.4214
 20
4.37827
 11
27.3244
 21
4.07968
  0
LINE
  8
0
 10
27.3244
 20
4.07968
 11
27.1908
 21
3.79561
  0
LINE
  8
0
 10
27.1908
 20
3.79561
 11
27.0225
 21
3.53053
  0
LINE
  8
0
 10
27.0225
 20
3.53053
 11
26.8224
 21
3.28862
  0
LINE
  8
0
 10
26.8224
 20
3.28862
 11
26.5936
 21
3.07372
  0
LINE
  8
0
 10
26.5936
 20
3.07372
 11
26.3396
 21
2.88918
  0
LINE
  8
0
 10
26.3396
 20
2.88918
 11
26.0644
 21
2.73793
  0
LINE
  8
0
 10
26.0644
 20
2.73793
 11
25.7725
 21
2.62234
  0
LINE
  8
0
 10
25.7725
 20
2.62234
 11
25.4684
 21
2.54428
  0
LINE
  8
0
 10
25.4684
 20
2.54428
 11
25.157
 21
2.50493
  0
LINE
  8
0
 10
25.157
 20
2.50493
 11
24.843
 21
2.50493
  0
ENDSEC
  0
SECTION
  2
OBJECTS
  0
DICTIONARY
  0
ENDSEC
  0
EOF
