  0
SECTION
  2
BLOCKS
  0
ENDSEC
  0
SECTION
  2
ENTITIES
  0
LINE
  8
0
 10
50
 20
100
 11
0
 21
100
  0
LINE
  8
0
 10
0
 20
100
 11
0
 21
0
  0
LINE
  8
0
 10
0
 20
0
 11
50
 21
0
  0
LINE
  8
0
 10
50
 20
0
 11
50
 21
100
  0
LINE
  8
0
 10
24.6232
 20
34.0118
 11
23.8757
 21
34.1063
  0
LINE
  8
0
 10
23.8757
 20
34.1063
 11
23.1459
 21
34.2937
  0
LINE
  8
0
 10
23.1459
 20
34.2937
 11
22.4453
 21
34.571
  0
LINE
  8
0
 10
22.4453
 20
34.571
 11
21.785
 21
34.934
  0
LINE
  8
0
 10
21.785
 20
34.934
 11
21.1754
 21
35.3769
  0
LINE
  8
0
 10
21.1754
 20
35.3769
 11
20.6262
 21
35.8927
  0
LINE
  8
0
 10
20.6262
 20
35.8927
 11
20.1459
 21
36.4733
  0
LINE
  8
0
 10
20.1459
 20
36.4733
 11
19.7422
 21
37.1095
  0
LINE
  8
0
 10
19.7422
 20
37.1095
 11
19.4213
 21
37.7912
  0
LINE
  8
0
 10
19.4213
 20
37.7912
 11
19.1885
 21
38.5079
  0
LINE
  8
0
 10
19.1885
 20
38.5079
 11
19.0473
 21
39.248
  0
LINE
  8
0
 10
19.0473
 20
39.248
 11
19
 21
40
  0
LINE
  8
0
 10
19
 20
40
 11
19.0473
 21
40.752
  0
LINE
  8
0
 10
19.0473
 20
40.752
 11
19.1885
 21
41.4921
  0
LINE
  8
0
 10
19.1885
 20
41.4921
 11
19.4213
 21
42.2087
  0
LINE
  8
0
 10
19.4213
 20
42.2087
 11
19.5584
 21
42.5
  0
LINE
  8
0
 10
19.5584
 20
42.5
 11
19.4213
 21
42.7912
  0
LINE
  8
0
 10
19.4213
 20
42.7912
 11
19.1885
 21
43.5079
  0
LINE
  8
0
 10
19.1885
 20
43.5079
 11
19.0473
 21
44.248
  0
LINE
  8
0
 10
19.0473
 20
44.248
 11
19
 21
45
  0
LINE
  8
0
 10
19
 20
45
 11
19.0473
 21
45.752
  0
LINE
  8
0
 10
19.0473
 20
45.752
 11
19.1885
 21
46.4921
  0
LINE
  8
0
 10
19.1885
 20
46.4921
 11
19.4213
 21
47.2087
  0
LINE
  8
0
 10
19.4213
 20
47.2087
 11
19.5584
 21
47.5
  0
LINE
  8
0
 10
19.5584
 20
47.5
 11
19.4213
 21
47.7912
  0
LINE
  8
0
 10
19.4213
 20
47.7912
 11
19.1885
 21
48.5079
  0
LINE
  8
0
 10
19.1885
 20
48.5079
 11
19.0473
 21
49.248
  0
LINE
  8
0
 10
19.0473
 20
49.248
 11
19
 21
50
  0
LINE
  8
0
 10
19
 20
50
 11
19.0473
 21
50.752
  0
LINE
  8
0
 10
19.0473
 20
50.752
 11
19.1885
 21
51.4921
  0
LINE
  8
0
 10
19.1885
 20
51.4921
 11
19.4213
 21
52.2087
  0
LINE
  8
0
 10
19.4213
 20
52.2087
 11
19.5584
 21
52.5
  0
LINE
  8
0
 10
19.5584
 20
52.5
 11
19.4213
 21
52.7912
  0
LINE
  8
0
 10
19.4213
 20
52.7912
 11
19.1885
 21
53.5079
  0
LINE
  8
0
 10
19.1885
 20
53.5079
 11
19.0473
 21
54.248
  0
LINE
  8
0
 10
19.0473
 20
54.248
 11
19
 21
55
  0
LINE
  8
0
 10
19
 20
55
 11
19.0473
 21
55.752
  0
LINE
  8
0
 10
19.0473
 20
55.752
 11
19.1885
 21
56.4921
  0
LINE
  8
0
 10
19.1885
 20
56.4921
 11
19.4213
 21
57.2087
  0
LINE
  8
0
 10
19.4213
 20
57.2087
 11
19.5584
 21
57.5
  0
LINE
  8
0
 10
19.5584
 20
57.5
 11
19.4213
 21
57.7912
  0
LINE
  8
0
 10
19.4213
 20
57.7912
 11
19.1885
 21
58.5079
  0
LINE
  8
0
 10
19.1885
 20
58.5079
 11
19.0473
 21
59.248
  0
LINE
  8
0
 10
19.0473
 20
59.248
 11
19
 21
60
  0
LINE
  8
0
 10
19
 20
60
 11
19.0473
 21
60.752
  0
LINE
  8
0
 10
19.0473
 20
60.752
 11
19.1885
 21
61.4921
  0
LINE
  8
0
 10
19.1885
 20
61.4921
 11
19.4213
 21
62.2087
  0
LINE
  8
0
 10
19.4213
 20
62.2087
 11
19.5584
 21
62.5
  0
LINE
  8
0
 10
19.5584
 20
62.5
 11
19.4213
 21
62.7912
  0
LINE
  8
0
 10
19.4213
 20
62.7912
 11
19.1885
 21
63.5079
  0
LINE
  8
0
 10
19.1885
 20
63.5079
 11
19.0473
 21
64.248
  0
LINE
  8
0
 10
19.0473
 20
64.248
 11
19
 21
65
  0
LINE
  8
0
 10
19
 20
65
 11
19.0473
 21
65.752
  0
LINE
  8
0
 10
19.0473
 20
65.752
 11
19.1885
 21
66.4921
  0
LINE
  8
0
 10
19.1885
 20
66.4921
 11
19.4213
 21
67.2087
  0
LINE
  8
0
 10
19.4213
 20
67.2087
 11
19.5584
 21
67.5
  0
LINE
  8
0
 10
19.5584
 20
67.5
 11
19.4213
 21
67.7912
  0
LINE
  8
0
 10
19.4213
 20
67.7912
 11
19.1885
 21
68.5079
  0
LINE
  8
0
 10
19.1885
 20
68.5079
 11
19.0473
 21
69.248
  0
LINE
  8
0
 10
19.0473
 20
69.248
 11
19
 21
70
  0
LINE
  8
0
 10
19
 20
70
 11
19.0473
 21
70.752
  0
LINE
  8
0
 10
19.0473
 20
70.752
 11
19.1885
 21
71.4921
  0
LINE
  8
0
 10
19.1885
 20
71.4921
 11
19.4213
 21
72.2087
  0
LINE
  8
0
 10
19.4213
 20
72.2087
 11
19.5584
 21
72.5
  0
LINE
  8
0
 10
19.5584
 20
72.5
 11
19.4213
 21
72.7912
  0
LINE
  8
0
 10
19.4213
 20
72.7912
 11
19.1885
 21
73.5079
  0
LINE
  8
0
 10
19.1885
 20
73.5079
 11
19.0473
 21
74.248
  0
LINE
  8
0
 10
19.0473
 20
74.248
 11
19
 21
75
  0
LINE
  8
0
 10
19
 20
75
 11
19.0473
 21
75.752
  0
LINE
  8
0
 10
19.0473
 20
75.752
 11
19.1885
 21
76.4921
  0
LINE
  8
0
 10
19.1885
 20
76.4921
 11
19.4213
 21
77.2087
  0
LINE
  8
0
 10
19.4213
 20
77.2087
 11
19.5584
 21
77.5
  0
LINE
  8
0
 10
19.5584
 20
77.5
 11
19.4213
 21
77.7912
  0
LINE
  8
0
 10
19.4213
 20
77.7912
 11
19.1885
 21
78.5079
  0
LINE
  8
0
 10
19.1885
 20
78.5079
 11
19.0473
 21
79.248
  0
LINE
  8
0
 10
19.0473
 20
79.248
 11
19
 21
80
  0
LINE
  8
0
 10
19
 20
80
 11
19.0473
 21
80.752
  0
LINE
  8
0
 10
19.0473
 20
80.752
 11
19.1885
 21
81.4921
  0
LINE
  8
0
 10
19.1885
 20
81.4921
 11
19.4213
 21
82.2087
  0
LINE
  8
0
 10
19.4213
 20
82.2087
 11
19.5584
 21
82.5
  0
LINE
  8
0
 10
19.5584
 20
82.5
 11
19.4213
 21
82.7912
  0
LINE
  8
0
 10
19.4213
 20
82.7912
 11
19.1885
 21
83.5079
  0
LINE
  8
0
 10
19.1885
 20
83.5079
 11
19.0473
 21
84.248
  0
LINE
  8
0
 10
19.0473
 20
84.248
 11
19
 21
85
  0
LINE
  8
0
 10
19
 20
85
 11
19.0473
 21
85.752
  0
LINE
  8
0
 10
19.0473
 20
85.752
 11
19.1885
 21
86.4921
  0
LINE
  8
0
 10
19.1885
 20
86.4921
 11
19.4213
 21
87.2087
  0
LINE
  8
0
 10
19.4213
 20
87.2087
 11
19.7422
 21
87.8905
  0
LINE
  8
0
 10
19.7422
 20
87.8905
 11
20.1459
 21
88.5267
  0
LINE
  8
0
 10
20.1459
 20
88.5267
 11
20.6262
 21
89.1073
  0
LINE
  8
0
 10
20.6262
 20
89.1073
 11
21.1754
 21
89.6231
  0
LINE
  8
0
 10
21.1754
 20
89.6231
 11
21.785
 21
90.066
  0
LINE
  8
0
 10
21.785
 20
90.066
 11
22.4453
 21
90.429
  0
LINE
  8
0
 10
22.4453
 20
90.429
 11
23.1459
 21
90.7063
  0
LINE
  8
0
 10
23.1459
 20
90.7063
 11
23.8757
 21
90.8937
  0
LINE
  8
0
 10
23.8757
 20
90.8937
 11
24.6232
 21
90.9882
  0
LINE
  8
0
 10
24.6232
 20
90.9882
 11
25.3767
 21
90.9882
  0
LINE
  8
0
 10
25.3767
 20
90.9882
 11
26.1243
 21
90.8937
  0
LINE
  8
0
 10
26.1243
 20
90.8937
 11
26.8541
 21
90.7063
  0
LINE
  8
0
 10
26.8541
 20
90.7063
 11
27.5547
 21
90.429
  0
LINE
  8
0
 10
27.5547
 20
90.429
 11
28.215
 21
90.066
  0
LINE
  8
0
 10
28.215
 20
90.066
 11
28.8245
 21
89.6231
  0
LINE
  8
0
 10
28.8245
 20
89.6231
 11
29.3738
 21
89.1073
  0
LINE
  8
0
 10
29.3738
 20
89.1073
 11
29.8541
 21
88.5267
  0
LINE
  8
0
 10
29.8541
 20
88.5267
 11
30.2578
 21
87.8905
  0
LINE
  8
0
 10
30.2578
 20
87.8905
 11
30.5786
 21
87.2087
  0
LINE
  8
0
 10
30.5786
 20
87.2087
 11
30.8115
 21
86.4921
  0
LINE
  8
0
 10
30.8115
 20
86.4921
 11
30.9527
 21
85.752
  0
LINE
  8
0
 10
30.9527
 20
85.752
 11
31
 21
85
  0
LINE
  8
0
 10
31
 20
85
 11
30.9527
 21
84.248
  0
LINE
  8
0
 10
30.9527
 20
84.248
 11
30.8115
 21
83.5079
  0
LINE
  8
0
 10
30.8115
 20
83.5079
 11
30.5786
 21
82.7912
  0
LINE
  8
0
 10
30.5786
 20
82.7912
 11
30.4416
 21
82.5
  0
LINE
  8
0
 10
30.4416
 20
82.5
 11
30.5786
 21
82.2087
  0
LINE
  8
0
 10
30.5786
 20
82.2087
 11
30.8115
 21
81.4921
  0
LINE
  8
0
 10
30.8115
 20
81.4921
 11
30.9527
 21
80.752
  0
LINE
  8
0
 10
30.9527
 20
80.752
 11
31
 21
80
  0
LINE
  8
0
 10
31
 20
80
 11
30.9527
 21
79.248
  0
LINE
  8
0
 10
30.9527
 20
79.248
 11
30.8115
 21
78.5079
  0
LINE
  8
0
 10
30.8115
 20
78.5079
 11
30.5786
 21
77.7912
  0
LINE
  8
0
 10
30.5786
 20
77.7912
 11
30.4416
 21
77.5
  0
LINE
  8
0
 10
30.4416
 20
77.5
 11
30.5786
 21
77.2087
  0
LINE
  8
0
 10
30.5786
 20
77.2087
 11
30.8115
 21
76.4921
  0
LINE
  8
0
 10
30.8115
 20
76.4921
 11
30.9527
 21
75.752
  0
LINE
  8
0
 10
30.9527
 20
75.752
 11
31
 21
75
  0
LINE
  8
0
 10
31
 20
75
 11
30.9527
 21
74.248
  0
LINE
  8
0
 10
30.9527
 20
74.248
 11
30.8115
 21
73.5079
  0
LINE
  8
0
 10
30.8115
 20
73.5079
 11
30.5786
 21
72.7912
  0
LINE
  8
0
 10
30.5786
 20
72.7912
 11
30.4416
 21
72.5
  0
LINE
  8
0
 10
30.4416
 20
72.5
 11
30.5786
 21
72.2087
  0
LINE
  8
0
 10
30.5786
 20
72.2087
 11
30.8115
 21
71.4921
  0
LINE
  8
0
 10
30.8115
 20
71.4921
 11
30.9527
 21
70.752
  0
LINE
  8
0
 10
30.9527
 20
70.752
 11
31
 21
70
  0
LINE
  8
0
 10
31
 20
70
 11
30.9527
 21
69.248
  0
LINE
  8
0
 10
30.9527
 20
69.248
 11
30.8115
 21
68.5079
  0
LINE
  8
0
 10
30.8115
 20
68.5079
 11
30.5786
 21
67.7912
  0
LINE
  8
0
 10
30.5786
 20
67.7912
 11
30.4416
 21
67.5
  0
LINE
  8
0
 10
30.4416
 20
67.5
 11
30.5786
 21
67.2087
  0
LINE
  8
0
 10
30.5786
 20
67.2087
 11
30.8115
 21
66.4921
  0
LINE
  8
0
 10
30.8115
 20
66.4921
 11
30.9527
 21
65.752
  0
LINE
  8
0
 10
30.9527
 20
65.752
 11
31
 21
65
  0
LINE
  8
0
 10
31
 20
65
 11
30.9527
 21
64.248
  0
LINE
  8
0
 10
30.9527
 20
64.248
 11
30.8115
 21
63.5079
  0
LINE
  8
0
 10
30.8115
 20
63.5079
 11
30.5786
 21
62.7912
  0
LINE
  8
0
 10
30.5786
 20
62.7912
 11
30.4416
 21
62.5
  0
LINE
  8
0
 10
30.4416
 20
62.5
 11
30.5786
 21
62.2087
  0
LINE
  8
0
 10
30.5786
 20
62.2087
 11
30.8115
 21
61.4921
  0
LINE
  8
0
 10
30.8115
 20
61.4921
 11
30.9527
 21
60.752
  0
LINE
  8
0
 10
30.9527
 20
60.752
 11
31
 21
60
  0
LINE
  8
0
 10
31
 20
60
 11
30.9527
 21
59.248
  0
LINE
  8
0
 10
30.9527
 20
59.248
 11
30.8115
 21
58.5079
  0
LINE
  8
0
 10
30.8115
 20
58.5079
 11
30.5786
 21
57.7912
  0
LINE
  8
0
 10
30.5786
 20
57.7912
 11
30.4416
 21
57.5
  0
LINE
  8
0
 10
30.4416
 20
57.5
 11
30.5786
 21
57.2087
  0
LINE
  8
0
 10
30.5786
 20
57.2087
 11
30.8115
 21
56.4921
  0
LINE
  8
0
 10
30.8115
 20
56.4921
 11
30.9527
 21
55.752
  0
LINE
  8
0
 10
30.9527
 20
55.752
 11
31
 21
55
  0
LINE
  8
0
 10
31
 20
55
 11
30.9527
 21
54.248
  0
LINE
  8
0
 10
30.9527
 20
54.248
 11
30.8115
 21
53.5079
  0
LINE
  8
0
 10
30.8115
 20
53.5079
 11
30.5786
 21
52.7912
  0
LINE
  8
0
 10
30.5786
 20
52.7912
 11
30.4416
 21
52.5
  0
LINE
  8
0
 10
30.4416
 20
52.5
 11
30.5786
 21
52.2087
  0
LINE
  8
0
 10
30.5786
 20
52.2087
 11
30.8115
 21
51.4921
  0
LINE
  8
0
 10
30.8115
 20
51.4921
 11
30.9527
 21
50.752
  0
LINE
  8
0
 10
30.9527
 20
50.752
 11
31
 21
50
  0
LINE
  8
0
 10
31
 20
50
 11
30.9527
 21
49.248
  0
LINE
  8
0
 10
30.9527
 20
49.248
 11
30.8115
 21
48.5079
  0
LINE
  8
0
 10
30.8115
 20
48.5079
 11
30.5786
 21
47.7912
  0
LINE
  8
0
 10
30.5786
 20
47.7912
 11
30.4416
 21
47.5
  0
LINE
  8
0
 10
30.4416
 20
47.5
 11
30.5786
 21
47.2087
  0
LINE
  8
0
 10
30.5786
 20
47.2087
 11
30.8115
 21
46.4921
  0
LINE
  8
0
 10
30.8115
 20
46.4921
 11
30.9527
 21
45.752
  0
LINE
  8
0
 10
30.9527
 20
45.752
 11
31
 21
45
  0
LINE
  8
0
 10
31
 20
45
 11
30.9527
 21
44.248
  0
LINE
  8
0
 10
30.9527
 20
44.248
 11
30.8115
 21
43.5079
  0
LINE
  8
0
 10
30.8115
 20
43.5079
 11
30.5786
 21
42.7912
  0
LINE
  8
0
 10
30.5786
 20
42.7912
 11
30.4416
 21
42.5
  0
LINE
  8
0
 10
30.4416
 20
42.5
 11
30.5786
 21
42.2087
  0
LINE
  8
0
 10
30.5786
 20
42.2087
 11
30.8115
 21
41.4921
  0
LINE
  8
0
 10
30.8115
 20
41.4921
 11
30.9527
 21
40.752
  0
LINE
  8
0
 10
30.9527
 20
40.752
 11
31
 21
40
  0
LINE
  8
0
 10
31
 20
40
 11
30.9527
 21
39.248
  0
LINE
  8
0
 10
30.9527
 20
39.248
 11
30.8115
 21
38.5079
  0
LINE
  8
0
 10
30.8115
 20
38.5079
 11
30.5786
 21
37.7912
  0
LINE
  8
0
 10
30.5786
 20
37.7912
 11
30.2578
 21
37.1095
  0
LINE
  8
0
 10
30.2578
 20
37.1095
 11
29.8541
 21
36.4733
  0
LINE
  8
0
 10
29.8541
 20
36.4733
 11
29.3738
 21
35.8927
  0
LINE
  8
0
 10
29.3738
 20
35.8927
 11
28.8245
 21
35.3769
  0
LINE
  8
0
 10
28.8245
 20
35.3769
 11
28.215
 21
34.934
  0
LINE
  8
0
 10
28.215
 20
34.934
 11
27.5547
 21
34.571
  0
LINE
  8
0
 10
27.5547
 20
34.571
 11
26.8541
 21
34.2937
  0
LINE
  8
0
 10
26.8541
 20
34.2937
 11
26.1243
 21
34.1063
  0
LINE
  8
0
 10
26.1243
 20
34.1063
 11
25.3767
 21
34.0118
  0
LINE
  8
0
 10
25.3767
 20
34.0118
 11
24.6232
 21
34.0118
  0
LINE
  8
0
 10
7.84302
 20
2.50493
 11
7.53154
 21
2.54428
  0
LINE
  8
0
 10
7.53154
 20
2.54428
 11
7.22745
 21
2.62234
  0
LINE
  8
0
 10
7.22745
 20
2.62234
 11
6.93555
 21
2.73793
  0
LINE
  8
0
 10
6.93555
 20
2.73793
 11
6.66043
 21
2.88918
  0
LINE
  8
0
 10
6.66043
 20
2.88918
 11
6.40643
 21
3.07372
  0
LINE
  8
0
 10
6.40643
 20
3.07372
 11
6.17757
 21
3.28862
  0
LINE
  8
0
 10
6.17757
 20
3.28862
 11
5.97745
 21
3.53053
  0
LINE
  8
0
 10
5.97745
 20
3.53053
 11
5.80922
 21
3.79561
  0
LINE
  8
0
 10
5.80922
 20
3.79561
 11
5.67555
 21
4.07968
  0
LINE
  8
0
 10
5.67555
 20
4.07968
 11
5.57854
 21
4.37827
  0
LINE
  8
0
 10
5.57854
 20
4.37827
 11
5.5197
 21
4.68666
  0
LINE
  8
0
 10
5.5197
 20
4.68666
 11
5.5
 21
5
  0
LINE
  8
0
 10
5.5
 20
5
 11
5.5197
 21
5.31332
  0
LINE
  8
0
 10
5.5197
 20
5.31332
 11
5.57854
 21
5.62172
  0
LINE
  8
0
 10
5.57854
 20
5.62172
 11
5.67555
 21
5.9203
  0
LINE
  8
0
 10
5.67555
 20
5.9203
 11
5.80922
 21
6.20438
  0
LINE
  8
0
 10
5.80922
 20
6.20438
 11
5.97745
 21
6.46945
  0
LINE
  8
0
 10
5.97745
 20
6.46945
 11
6.17757
 21
6.71136
  0
LINE
  8
0
 10
6.17757
 20
6.71136
 11
6.40643
 21
6.92627
  0
LINE
  8
0
 10
6.40643
 20
6.92627
 11
6.66043
 21
7.11081
  0
LINE
  8
0
 10
6.66043
 20
7.11081
 11
6.93555
 21
7.26205
  0
LINE
  8
0
 10
6.93555
 20
7.26205
 11
7.22745
 21
7.37764
  0
LINE
  8
0
 10
7.22745
 20
7.37764
 11
7.53154
 21
7.4557
  0
LINE
  8
0
 10
7.53154
 20
7.4557
 11
7.84302
 21
7.49506
  0
LINE
  8
0
 10
7.84302
 20
7.49506
 11
8.15697
 21
7.49506
  0
LINE
  8
0
 10
8.15697
 20
7.49506
 11
8.46844
 21
7.4557
  0
LINE
  8
0
 10
8.46844
 20
7.4557
 11
8.77254
 21
7.37764
  0
LINE
  8
0
 10
8.77254
 20
7.37764
 11
9.06444
 21
7.26205
  0
LINE
  8
0
 10
9.06444
 20
7.26205
 11
9.33955
 21
7.11081
  0
LINE
  8
0
 10
9.33955
 20
7.11081
 11
9.59355
 21
6.92627
  0
LINE
  8
0
 10
9.59355
 20
6.92627
 11
9.82242
 21
6.71136
  0
LINE
  8
0
 10
9.82242
 20
6.71136
 11
10.0225
 21
6.46945
  0
LINE
  8
0
 10
10.0225
 20
6.46945
 11
10.1908
 21
6.20438
  0
LINE
  8
0
 10
10.1908
 20
6.20438
 11
10.3244
 21
5.9203
  0
LINE
  8
0
 10
10.3244
 20
5.9203
 11
10.4214
 21
5.62172
  0
LINE
  8
0
 10
10.4214
 20
5.62172
 11
10.4803
 21
5.31332
  0
LINE
  8
0
 10
10.4803
 20
5.31332
 11
10.5
 21
5
  0
LINE
  8
0
 10
10.5
 20
5
 11
10.4803
 21
4.68666
  0
LINE
  8
0
 10
10.4803
 20
4.68666
 11
10.4214
 21
4.37827
  0
LINE
  8
0
 10
10.4214
 20
4.37827
 11
10.3244
 21
4.07968
  0
LINE
  8
0
 10
10.3244
 20
4.07968
 11
10.1908
 21
3.79561
  0
LINE
  8
0
 10
10.1908
 20
3.79561
 11
10.0225
 21
3.53053
  0
LINE
  8
0
 10
10.0225
 20
3.53053
 11
9.82242
 21
3.28862
  0
LINE
  8
0
 10
9.82242
 20
3.28862
 11
9.59355
 21
3.07372
  0
LINE
  8
0
 10
9.59355
 20
3.07372
 11
9.33955
 21
2.88918
  0
LINE
  8
0
 10
9.33955
 20
2.88918
 11
9.06444
 21
2.73793
  0
LINE
  8
0
 10
9.06444
 20
2.73793
 11
8.77254
 21
2.62234
  0
LINE
  8
0
 10
8.77254
 20
2.62234
 11
8.46844
 21
2.54428
  0
LINE
  8
0
 10
8.46844
 20
2.54428
 11
8.15697
 21
2.50493
  0
LINE
  8
0
 10
8.15697
 20
2.50493
 11
7.84302
 21
2.50493
  0
LINE
  8
0
 10
41.843
 20
2.50493
 11
41.5315
 21
2.54428
  0
LINE
  8
0
 10
41.5315
 20
2.54428
 11
41.2274
 21
2.62234
  0
LINE
  8
0
 10
41.2274
 20
2.62234
 11
40.9355
 21
2.73793
  0
LINE
  8
0
 10
40.9355
 20
2.73793
 11
40.6604
 21
2.88918
  0
LINE
  8
0
 10
40.6604
 20
2.88918
 11
40.4064
 21
3.07372
  0
LINE
  8
0
 10
40.4064
 20
3.07372
 11
40.1776
 21
3.28862
  0
LINE
  8
0
 10
40.1776
 20
3.28862
 11
39.9774
 21
3.53053
  0
LINE
  8
0
 10
39.9774
 20
3.53053
 11
39.8092
 21
3.79561
  0
LINE
  8
0
 10
39.8092
 20
3.79561
 11
39.6756
 21
4.07968
  0
LINE
  8
0
 10
39.6756
 20
4.07968
 11
39.5785
 21
4.37827
  0
LINE
  8
0
 10
39.5785
 20
4.37827
 11
39.5197
 21
4.68666
  0
LINE
  8
0
 10
39.5197
 20
4.68666
 11
39.5
 21
5
  0
LINE
  8
0
 10
39.5
 20
5
 11
39.5197
 21
5.31332
  0
LINE
  8
0
 10
39.5197
 20
5.31332
 11
39.5785
 21
5.62172
  0
LINE
  8
0
 10
39.5785
 20
5.62172
 11
39.6756
 21
5.9203
  0
LINE
  8
0
 10
39.6756
 20
5.9203
 11
39.8092
 21
6.20438
  0
LINE
  8
0
 10
39.8092
 20
6.20438
 11
39.9774
 21
6.46945
  0
LINE
  8
0
 10
39.9774
 20
6.46945
 11
40.1776
 21
6.71136
  0
LINE
  8
0
 10
40.1776
 20
6.71136
 11
40.4064
 21
6.92627
  0
LINE
  8
0
 10
40.4064
 20
6.92627
 11
40.6604
 21
7.11081
  0
LINE
  8
0
 10
40.6604
 20
7.11081
 11
40.9355
 21
7.26205
  0
LINE
  8
0
 10
40.9355
 20
7.26205
 11
41.2274
 21
7.37764
  0
LINE
  8
0
 10
41.2274
 20
7.37764
 11
41.5315
 21
7.4557
  0
LINE
  8
0
 10
41.5315
 20
7.4557
 11
41.843
 21
7.49506
  0
LINE
  8
0
 10
41.843
 20
7.49506
 11
42.157
 21
7.49506
  0
LINE
  8
0
 10
42.157
 20
7.49506
 11
42.4684
 21
7.4557
  0
LINE
  8
0
 10
42.4684
 20
7.4557
 11
42.7725
 21
7.37764
  0
LINE
  8
0
 10
42.7725
 20
7.37764
 11
43.0644
 21
7.26205
  0
LINE
  8
0
 10
43.0644
 20
7.26205
 11
43.3396
 21
7.11081
  0
LINE
  8
0
 10
43.3396
 20
7.11081
 11
43.5936
 21
6.92627
  0
LINE
  8
0
 10
43.5936
 20
6.92627
 11
43.8224
 21
6.71136
  0
LINE
  8
0
 10
43.8224
 20
6.71136
 11
44.0225
 21
6.46945
  0
LINE
  8
0
 10
44.0225
 20
6.46945
 11
44.1908
 21
6.20438
  0
LINE
  8
0
 10
44.1908
 20
6.20438
 11
44.3244
 21
5.9203
  0
LINE
  8
0
 10
44.3244
 20
5.9203
 11
44.4214
 21
5.62172
  0
LINE
  8
0
 10
44.4214
 20
5.62172
 11
44.4803
 21
5.31332
  0
LINE
  8
0
 10
44.4803
 20
5.31332
 11
44.5
 21
5
  0
LINE
  8
0
 10
44.5
 20
5
 11
44.4803
 21
4.68666
  0
LINE
  8
0
 10
44.4803
 20
4.68666
 11
44.4214
 21
4.37827
  0
LINE
  8
0
 10
44.4214
 20
4.37827
 11
44.3244
 21
4.07968
  0
LINE
  8
0
 10
44.3244
 20
4.07968
 11
44.1908
 21
3.79561
  0
LINE
  8
0
 10
44.1908
 20
3.79561
 11
44.0225
 21
3.53053
  0
LINE
  8
0
 10
44.0225
 20
3.53053
 11
43.8224
 21
3.28862
  0
LINE
  8
0
 10
43.8224
 20
3.28862
 11
43.5936
 21
3.07372
  0
LINE
  8
0
 10
43.5936
 20
3.07372
 11
43.3396
 21
2.88918
  0
LINE
  8
0
 10
43.3396
 20
2.88918
 11
43.0644
 21
2.73793
  0
LINE
  8
0
 10
43.0644
 20
2.73793
 11
42.7725
 21
2.62234
  0
LINE
  8
0
 10
42.7725
 20
2.62234
 11
42.4684
 21
2.54428
  0
LINE
  8
0
 10
42.4684
 20
2.54428
 11
42.157
 21
2.50493
  0
LINE
  8
0
 10
42.157
 20
2.50493
 11
41.843
 21
2.50493
  0
ENDSEC
  0
SECTION
  2
OBJECTS
  0
DICTIONARY
  0
ENDSEC
  0
EOF
